<?xml version="1.0" encoding="utf-8"?>
	<svg version="1.1" id="Layer_1" xmlns="http://www.w3.org/2000/svg" xmlns:xlink="http://www.w3.org/1999/xlink" x="0px" y="0px" viewBox="0 0 78 78" style="enable-background:new 0 0 78 78;" xml:space="preserve">
	<style type="text/css">
		.st0{fill:#B4B4B4;}
		.st1{fill:none;stroke:#B4B4B4;stroke-linecap:round;}
	</style>
	<path class="st0" d="M75.37,41.5c-0.7,10.05-4.86,18.39-12.46,25s-16.44,9.57-26.49,8.86c-10.05-0.7-18.39-4.86-25-12.46
		C4.8,55.3,1.84,46.47,2.55,36.41c0.7-10.05,4.86-18.39,12.46-25C22.62,4.8,31.45,1.84,41.5,2.55c3.43,0.24,6.76,0.95,9.99,2.13
		c0.5,0.18,0.94,0.45,1.33,0.81c0.39,0.36,0.7,0.78,0.92,1.26s0.35,0.99,0.37,1.52c0.02,0.53-0.06,1.04-0.24,1.54
		c-0.18,0.5-0.45,0.94-0.81,1.33s-0.78,0.7-1.26,0.92c-0.48,0.22-0.99,0.35-1.52,0.37s-1.04-0.06-1.54-0.24
		c-2.52-0.92-5.12-1.48-7.8-1.66c-7.85-0.55-14.75,1.76-20.69,6.92s-9.18,11.67-9.73,19.52c-0.55,7.85,1.76,14.75,6.92,20.69
		c5.16,5.94,11.67,9.18,19.52,9.73c7.85,0.55,14.75-1.76,20.69-6.92s9.18-11.67,9.73-19.52c0.04-0.53,0.17-1.03,0.41-1.51
		c0.24-0.47,0.56-0.89,0.96-1.23c0.4-0.35,0.85-0.61,1.36-0.77s1.02-0.23,1.55-0.2c0.53,0.04,1.03,0.17,1.51,0.41
		s0.89,0.56,1.23,0.96c0.35,0.4,0.61,0.85,0.77,1.36C75.34,40.46,75.41,40.97,75.37,41.5z">
	</path>
	<path class="st0" d="M32.53,57.9c-0.36-0.3-0.64-0.65-0.85-1.07c-0.21-0.41-0.34-0.85-0.38-1.31s0.01-0.91,0.15-1.36
		c0.14-0.44,0.36-0.84,0.66-1.2l23.78-28.34c0.3-0.36,0.65-0.64,1.07-0.85c0.41-0.21,0.85-0.34,1.31-0.38
		c0.46-0.04,0.91,0.01,1.36,0.15c0.44,0.14,0.84,0.36,1.2,0.66c0.36,0.3,0.64,0.65,0.85,1.07c0.21,0.41,0.34,0.85,0.38,1.31
		c0.04,0.46-0.01,0.91-0.15,1.36c-0.14,0.44-0.36,0.84-0.66,1.2L37.46,57.46c-0.3,0.36-0.65,0.64-1.07,0.85s-0.85,0.34-1.31,0.38
		c-0.46,0.04-0.91-0.01-1.36-0.15S32.88,58.19,32.53,57.9z">
	</path>
	<path class="st1" d="M32.53,57.9L32.53,57.9c-0.36-0.3-0.64-0.65-0.85-1.07s-0.34-0.85-0.38-1.31c-0.04-0.46,0.01-0.91,0.15-1.36
		c0.14-0.44,0.36-0.84,0.66-1.2l23.78-28.34c0.3-0.36,0.65-0.64,1.07-0.85c0.41-0.21,0.85-0.34,1.31-0.38s0.91,0.01,1.36,0.15
		c0.44,0.14,0.84,0.36,1.2,0.66c0.36,0.3,0.64,0.65,0.85,1.07c0.21,0.41,0.34,0.85,0.38,1.31c0.04,0.46-0.01,0.91-0.15,1.36
		c-0.14,0.44-0.36,0.84-0.66,1.2L37.46,57.46c-0.3,0.36-0.65,0.64-1.07,0.85c-0.41,0.21-0.85,0.34-1.31,0.38
		c-0.46,0.04-0.91-0.01-1.36-0.15C33.28,58.41,32.88,58.19,32.53,57.9z">
	</path>
	<path class="st0" d="M20.12,40.72c0.38-0.38,0.81-0.66,1.3-0.87c0.49-0.2,1-0.3,1.53-0.3c0.53,0,1.04,0.1,1.53,0.3
		c0.49,0.2,0.92,0.49,1.3,0.87l11.65,11.65c0.38,0.38,0.66,0.81,0.87,1.3c0.2,0.49,0.3,1,0.3,1.53c0,0.53-0.1,1.04-0.3,1.53
		c-0.2,0.49-0.49,0.92-0.87,1.3c-0.38,0.38-0.81,0.66-1.3,0.87s-1,0.3-1.53,0.3s-1.04-0.1-1.53-0.3c-0.49-0.2-0.92-0.49-1.3-0.87
		L20.12,46.38c-0.38-0.38-0.66-0.81-0.87-1.3c-0.2-0.49-0.3-1-0.3-1.53c0-0.53,0.1-1.04,0.3-1.53
		C19.45,41.53,19.74,41.09,20.12,40.72z">
	</path>
</svg>
