<svg xmlns="http://www.w3.org/2000/svg" width="18.001" height="9.001" viewBox="0 0 18.001 9.001">
  <g id="Unknown" transform="translate(-5.999 -69.999)">
    <path id="Union_2" data-name="Union 2" d="M-173-284h-13v-9h13l5,4.5-5,4.5Zm-7.124-2.021a.593.593,0,0,0-.2.459.6.6,0,0,0,.2.459.728.728,0,0,0,.493.191.717.717,0,0,0,.489-.191.592.592,0,0,0,.205-.459.586.586,0,0,0-.205-.459.7.7,0,0,0-.489-.2A.708.708,0,0,0-180.124-286.021Zm.75-5.1a1.118,1.118,0,0,1,.352.164.8.8,0,0,1,.241.274.8.8,0,0,1,.088.383.867.867,0,0,1-.12.449,1.989,1.989,0,0,1-.3.391c-.115.12-.245.248-.385.381a5.418,5.418,0,0,0-.386.4,2.282,2.282,0,0,0-.3.452,1.208,1.208,0,0,0-.12.54,2.276,2.276,0,0,0,.034.385,1.943,1.943,0,0,0,.078.318h1.031a2.578,2.578,0,0,1-.108-.288,1.3,1.3,0,0,1-.053-.381.859.859,0,0,1,.127-.454,2.167,2.167,0,0,1,.32-.4c.126-.123.265-.252.415-.381a2.866,2.866,0,0,0,.415-.437,2.415,2.415,0,0,0,.32-.539,1.67,1.67,0,0,0,.127-.67,1.514,1.514,0,0,0-.151-.693,1.431,1.431,0,0,0-.416-.5,1.877,1.877,0,0,0-.615-.3,2.689,2.689,0,0,0-.747-.1,3.267,3.267,0,0,0-1.66.469v1.128a1.98,1.98,0,0,1,1.387-.649A1.639,1.639,0,0,1-179.375-291.118Z" transform="translate(192 363)" fill="#fff"/>
  </g>
</svg>
