<svg xmlns="http://www.w3.org/2000/svg" width="18" height="9" viewBox="0 0 18 9">
	<g id="Unknown" transform="translate(-6 -70)">
		<path id="Polygon_3" d="M4.5,0,9,5H0Z" transform="translate(24 70) rotate(90)" fill="#B4B4B4"/>
		<path id="Subtraction_6" d="M-174-284h-13v-9h13v9Zm-6.631-2.216a.707.707,0,0,0-.493.2.589.589,0,0,0-.2.459.6.6,0,0,0,.2.459.728.728,0,0,0,.493.191.719.719,0,0,0,.489-.191.6.6,0,0,0,.205-.459.588.588,0,0,0-.205-.459A.7.7,0,0,0-180.631-286.216Zm-.166-4.955a1.638,1.638,0,0,1,.422.053,1.106,1.106,0,0,1,.352.164.8.8,0,0,1,.241.274.793.793,0,0,1,.088.383.877.877,0,0,1-.12.449,2.039,2.039,0,0,1-.3.391c-.115.12-.245.248-.385.381a5.106,5.106,0,0,0-.386.4,2.255,2.255,0,0,0-.3.452,1.2,1.2,0,0,0-.12.54,2.26,2.26,0,0,0,.034.385,1.887,1.887,0,0,0,.078.318h1.031a2.5,2.5,0,0,1-.108-.288,1.3,1.3,0,0,1-.053-.381.851.851,0,0,1,.127-.455,2.142,2.142,0,0,1,.32-.4c.126-.124.265-.252.415-.381a2.97,2.97,0,0,0,.415-.437,2.473,2.473,0,0,0,.32-.539,1.678,1.678,0,0,0,.127-.67,1.52,1.52,0,0,0-.151-.693,1.43,1.43,0,0,0-.416-.5,1.885,1.885,0,0,0-.615-.3,2.671,2.671,0,0,0-.747-.1,3.26,3.26,0,0,0-1.661.469v1.128A1.977,1.977,0,0,1-180.8-291.172Z" transform="translate(193 363)" fill="#B4B4B4"/>
	</g>
</svg>
