<svg class="svg-icon" style="width: 1em; height: 1em;vertical-align: middle;fill: currentColor;overflow: hidden;" viewBox="0 0 1024 1024" version="1.1" xmlns="http://www.w3.org/2000/svg">
  <path d="M474.8 706.5c-6.9 0-13.8 0-20.6 0.1-144.5 12.5-247.1 44.2-247.1 81.4 0 48.1 172 87.1 384.2 87.1 6.9 0 13.8 0 20.6-0.1C756.4 862.6 859 830.8 859 793.7c0-48.2-172-87.2-384.2-87.2z" fill="#E2E2E2" />
  <path d="M526.2 706.5c-6.9 0-13.8 0-20.6 0.1-7.6 0.7-15.1 1.4-22.5 2.2 179.9 7.2 316.6 42.9 316.6 85.8 0 35.2-92.1 65.5-224.6 79.2 22 0.9 44.5 1.4 67.6 1.4 6.9 0 13.8 0 20.6-0.1 144.5-12.5 247.1-44.2 247.1-81.4 0-48.2-172-87.2-384.2-87.2z" fill="#C3C3C3" />
  <path d="M388.8 373.2c-4.2 0-8.4-1.8-11.4-5.3-5.3-6.3-4.4-15.6 1.8-20.9 6.6-5.5 10.7-13.4 11.4-22.1 0.8-8.7-1.9-17.1-7.4-23.7-22-26.3-18.6-65.5 7.7-87.6 6.3-5.3 15.6-4.5 20.9 1.8s4.4 15.6-1.8 20.9c-13.7 11.5-15.5 32.1-4 45.8 10.6 12.7 15.7 28.8 14.2 45.4-1.4 16.6-9.2 31.6-21.9 42.2-2.7 2.4-6.1 3.5-9.5 3.5zM319.1 852.3c-16.2-2.4-31.3-5-45.1-7.8-6.9-1.4-13.9 2.6-16.1 9.3 0 0.1-0.1 0.2-0.1 0.3-3 8.8 2 17.3 11.1 19.1 14.7 2.9 30.1 5.5 46 7.9 7 1 13.7-3.3 15.6-10.1 0.1-0.2 0.1-0.4 0.2-0.6 2.3-8.4-3.1-16.8-11.6-18.1z" fill="#333333" />
  <path d="M526.2 691.7c-160.4 0-399 27.2-399 102 0 28 33.3 49.2 83.4 65 7.6 2.4 15.7-2 18.1-9.6 0-0.1 0.1-0.2 0.1-0.3 2.4-7.6-1.9-15.7-9.5-18-41.3-12.9-62.4-26.8-62.4-37 0-25.2 126.9-72.3 369.4-72.3s369.4 47.1 369.4 72.3-126.9 72.3-369.4 72.3c-56.2 0-106.2-2.5-149.9-6.8-6.9-0.7-13.3 3.6-15.2 10.3l-0.1 0.4c-2.5 8.6 3.4 17.4 12.3 18.3 52.4 5.2 106 7.5 152.9 7.5 160.4 0 399-27.2 399-102-0.1-74.9-238.7-102.1-399.1-102.1zM519.4 352.1c-4.2 0-8.4-1.8-11.4-5.3-5.3-6.3-4.4-15.6 1.8-20.9 6.6-5.5 10.7-13.4 11.4-22.1 0.8-8.7-1.9-17.1-7.4-23.7-22-26.3-18.6-65.5 7.7-87.6 6.3-5.2 15.6-4.4 20.9 1.8 5.3 6.3 4.4 15.6-1.8 20.9-13.7 11.5-15.5 32.1-4 45.8 10.6 12.7 15.7 28.8 14.2 45.4s-9.2 31.6-21.9 42.2c-2.8 2.3-6.2 3.5-9.5 3.5zM649.9 373.2c-4.2 0-8.4-1.8-11.4-5.3-5.3-6.3-4.4-15.6 1.8-20.9 6.6-5.5 10.7-13.4 11.4-22.1s-1.9-17.1-7.4-23.7c-10.6-12.7-15.7-28.8-14.2-45.4s9.2-31.6 21.9-42.2c6.3-5.3 15.6-4.5 20.9 1.8 5.3 6.3 4.4 15.6-1.8 20.9-13.7 11.5-15.5 32.1-4 45.8 10.6 12.7 15.7 28.8 14.2 45.4s-9.2 31.6-21.9 42.2c-2.8 2.4-6.1 3.5-9.5 3.5z" fill="#333333" />
  <path d="M811.9 476.8c0 35.8-22.6 316.9-285.6 316.9-271.9 0-285.6-281.1-285.6-316.9 0-35.8 127.9-64.8 285.6-64.8s285.6 29 285.6 64.8z" fill="#FFFFFF" />
  <path d="M746.8 698.3c-5.3 0-10.2-2.8-12.8-7.4-2.9-5-2.6-11.2 0.7-15.9 22.7-32.4 39.8-71.7 50.6-116.8 1.1-4.4 4.1-8.1 8.2-10 54-25.1 80.5-12.5 91.4-2.8 14.3 12.7 18.3 34 10.7 56.9-14 42.4-65 88.5-147.4 95.9-0.5 0.1-0.9 0.1-1.4 0.1z m65.5-126c-8.6 33.5-20.5 64-35.5 91.1 50.3-12.8 81.7-43.4 90.6-70.4 3.8-11.3 2.9-20.8-2.3-25.5-6.6-5.8-23.9-7.4-52.8 4.8z" fill="#333333" />
  <path d="M468.7 413.3c-130.2 6-228.1 32.2-228.1 63.5s97.9 57.4 228.1 63.5c130.2-6 228.1-32.2 228.1-63.5s-98-57.5-228.1-63.5z" fill="#C3C3C3" />
  <path d="M767.5 442.1s0 0.1-0.1 0.1c-2.8 7.2 0.7 15.4 7.8 18.4 14.4 6.1 21.8 11.9 21.8 16.1 0 4.8-9.4 11.6-28 18.6 7.9 2.9 14.9 5.9 20.8 9.1-18.1 9.8-46.4 18.4-82 25-121 19.7-242 19.7-363 0-11-2.1-21.2-4.3-30.8-6.7 11.4 84.9 58.3 250.4 246.6 269 230.6-23.4 251.3-280.9 251.3-315 0-12.7-16.3-24.6-44.4-34.6z" fill="#E2E2E2" />
  <path d="M525.2 786.1c11.2 2.4 22.9 4.5 35.4 5.7C756.4 771.9 800.8 583.3 809.8 506c-16.2 12.7-42.8 22.5-74.4 30-15.3 81.5-63.6 217.4-210.2 250.1z" fill="#C3C3C3" />
  <path d="M709.2 427.1c6 1.1 11.8 2.3 17.3 3.5-5.5-1.2-11.3-2.4-17.3-3.5z" fill="#E2E2E2" />
  <path d="M741.7 487c0.3-4.4 0.4-7.9 0.4-10.3 0-16.8-28.4-32.2-74.9-43.7 3.7-1.7 6.7-5 7.8-9.1l0.1-0.2c0.2-0.7 0.3-1.5 0.4-2.2-34.1-4.7-72.8-7.9-114.3-9.1-141.3 3.9-250.7 31.2-250.7 64.3 0 2.4 0.1 5.9 0.3 10.3 52.4-13.7 129.4-22.3 215.6-22.3 85.9 0 162.9 8.7 215.3 22.3z" fill="#C3C3C3" />
  <path d="M675 423.9c-1.2 4.2-4.1 7.4-7.8 9.1 46.5 11.5 74.9 26.8 74.9 43.7 0 2.4-0.1 5.9-0.4 10.3 10 2.6 19.2 5.4 27.3 8.4 18.6-7.1 28-13.9 28-18.6 0-4.2-7.3-10-21.8-16.1-7.1-3-10.6-11.2-7.8-18.4 0 0 0-0.1 0.1-0.1-2.9-1-5.9-2-9-3-0.1 0-0.1 0-0.2-0.1-9.5-3-20-5.8-31.5-8.3-0.1 0-0.2 0-0.3-0.1-5.5-1.2-11.4-2.4-17.3-3.5-10.6-2-21.9-3.9-33.8-5.5-0.1 0.7-0.2 1.5-0.4 2.2z" fill="#E2E2E2" />
  <path d="M726.8 430.7c11.5 2.6 22 5.4 31.5 8.3-9.5-3-20-5.8-31.5-8.3zM675.5 421.5c11.9 1.7 23.1 3.5 33.8 5.5-10.7-1.9-22-3.8-33.8-5.5z" fill="#E2E2E2" />
  <path d="M769 495.4c-8.1-3-17.3-5.8-27.3-8.4-52.4-13.7-129.4-22.3-215.5-22.3S363 473.4 310.6 487c-19.8 5.2-36.1 11-48 17.4 12.5 6.8 30 12.9 51.3 18.3 9.5 2.4 19.8 4.7 30.8 6.7 121 19.7 242 19.7 363 0 35.6-6.7 64-15.2 82-25-5.8-3.1-12.8-6.1-20.7-9z" fill="#7C6453" />
  <path d="M787.1 434.3c-7.6-3.4-16.5 0.1-19.6 7.8 0 0 0 0.1-0.1 0.1-2.8 7.2 0.7 15.4 7.8 18.4 14.4 6.1 21.8 11.9 21.8 16.1 0 6.8-19.2 17.8-56.9 27.7-45.1 11.9-116.6 22.3-213.9 22.3-178.7 0-270.8-35-270.8-50 0-14.9 92.1-50 270.8-50 51.7 0 96.2 2.9 133.3 7.5 2.7 0.3 5.3-0.1 7.7-1.2 3.7-1.7 6.7-5 7.8-9.1l0.1-0.2c0.2-0.7 0.3-1.5 0.4-2.2 1-7.9-4.5-15.3-12.7-16.3-48.5-5.9-98.6-8.1-136.5-8.1-103.9 0-300.5 16.6-300.5 79.6s196.5 79.6 300.5 79.6c57.7 0 143.9-5.1 209.2-20.5 31.6-7.4 58.2-17.2 74.4-30 10.7-8.4 16.9-18.1 16.9-29.2-0.1-17.4-15.4-31.3-39.7-42.3z" fill="#333333" />
  <path d="M606 672.7m-25 0a25 25 0 1 0 50 0 25 25 0 1 0-50 0Z" fill="#7C6453" />
  <path d="M380.7 675.1m-25 0a25 25 0 1 0 50 0 25 25 0 1 0-50 0Z" fill="#7C6453" />
  <path d="M738.4 435.7c0.1-0.1 0.1-0.3 0.2-0.4 3.2-8.3-1.8-17.4-10.4-19.3-1.8-0.4-3.7-0.8-5.5-1.2-7.3-1.5-14.6 2.7-16.9 9.8 0 0.1-0.1 0.3-0.1 0.4-2.6 8.2 2.6 16.7 11 18.4 1.8 0.4 3.5 0.7 5.3 1.1 6.8 1.7 13.8-2.1 16.4-8.8z" fill="#333333" />
  <path d="M787.1 434.3c-7.6-3.5-16.6 0.1-19.6 7.9 0 0.1 0 0.1-0.1 0.2-2.8 7.2 0.7 15.2 7.8 18.2 14.5 6.2 21.9 12 21.9 16.2 0 3-7.4 302.1-270.8 302.1-267.7 0-270.8-289.8-270.8-302.1 0-14.9 92.1-50 270.8-50 51.7 0 96.1 2.9 133.2 7.5 7 0.9 13.7-3.6 15.6-10.4 2.5-8.7-3.4-17.5-12.4-18.6-48.4-5.9-98.5-8.1-136.4-8.1-103.9 0-300.5 16.6-300.5 79.6 0 9.6 1.2 96.2 42.4 178.5 50.2 100.2 139.4 153.2 258.1 153.2 292.3 0 300.5-328.4 300.5-331.7-0.1-17.6-15.4-31.5-39.7-42.5z" fill="#333333" />
  <path d="M631.244126 800.667377a62.4 84 66.17 1 0 153.677706-67.876085 62.4 84 66.17 1 0-153.677706 67.876085Z" fill="#7C6453" />
  <path d="M690.7 848c-7.6 0-15.1-0.8-22.3-2.4-24-5.4-41.9-19.2-50.6-38.9-17.2-39 9.4-88.6 59.2-110.6 49.9-22 104.4-8.2 121.6 30.7 17.2 39-9.4 88.6-59.2 110.6-15.9 7-32.6 10.6-48.7 10.6z m34.9-132.8c-11.7 0-24.4 2.6-36.6 8-34.3 15.2-54.5 47.9-44.1 71.5 4.8 10.8 15.5 18.6 30.1 21.9 16.2 3.7 34.8 1.4 52.5-6.4 34.3-15.2 54.5-47.9 44.1-71.5-6.8-15.1-24.8-23.5-46-23.5z" fill="#333333" />
  <path d="M679.7 794.2c-5.7 0-11.1-3.3-13.6-8.8-3.3-7.5 0.1-16.2 7.6-19.5l57-25.2c7.5-3.3 16.2 0.1 19.5 7.6s-0.1 16.2-7.6 19.5l-57 25.2c-1.9 0.8-3.9 1.2-5.9 1.2z" fill="#333333" />
  <path d="M510.639527 467.318866a14.8 14.8 0 1 0 29.135295-5.22442 14.8 14.8 0 1 0-29.135295 5.22442Z" fill="#FFFFFF" />
  <path d="M370.6 488c-7.3 0-13.7-5.4-14.7-12.9-1.1-8.1 4.6-15.6 12.7-16.7 27.7-3.7 58-6.6 90-8.6 8.2-0.5 15.2 5.7 15.7 13.9s-5.7 15.2-13.9 15.7c-31.3 2-60.9 4.8-87.9 8.4-0.6 0.2-1.3 0.2-1.9 0.2z" fill="#FFFFFF" />
</svg>
