<svg id="g3028" xmlns="http://www.w3.org/2000/svg" width="20" height="20" viewBox="0 0 20 20">
  <path id="path4003" d="M1.732,10a7.946,7.946,0,0,0,.3,2.185,8.6,8.6,0,0,0,.835,1.974A8.274,8.274,0,0,0,5.824,17.13a8.375,8.375,0,0,0,1.974.84,8.149,8.149,0,0,0,4.374,0,8.31,8.31,0,0,0,1.965-.84,8.515,8.515,0,0,0,1.675-1.3,8.208,8.208,0,0,0,1.3-1.679,8.618,8.618,0,0,0,.844-1.974,7.836,7.836,0,0,0,.3-2.185,7.944,7.944,0,0,0-.3-2.185,8.393,8.393,0,0,0-.84-1.969,8.237,8.237,0,0,0-1.3-1.67,8.376,8.376,0,0,0-1.679-1.292,8.478,8.478,0,0,0-1.974-.84,8.149,8.149,0,0,0-4.374,0,8.486,8.486,0,0,0-1.974.835A8.192,8.192,0,0,0,2.866,5.837a8.6,8.6,0,0,0-.835,1.974A7.946,7.946,0,0,0,1.732,10Zm2.769.035V10L8.527,5.785h2.919L8.378,8.923h6.673V11.1H8.378l3.068,3.138H8.527ZM0,9.987A9.554,9.554,0,0,1,.36,7.358,10.026,10.026,0,0,1,1.38,4.98a10.281,10.281,0,0,1,3.6-3.6A10.005,10.005,0,0,1,7.363.36a9.8,9.8,0,0,1,5.266,0,10.224,10.224,0,0,1,2.382,1.011A10.1,10.1,0,0,1,19.64,7.345a9.829,9.829,0,0,1,0,5.275A10,10,0,0,1,18.62,15a10.33,10.33,0,0,1-3.609,3.609,10.138,10.138,0,0,1-2.382,1.024A9.491,9.491,0,0,1,10,20a9.6,9.6,0,0,1-2.633-.36,10.041,10.041,0,0,1-4.409-2.589A10.352,10.352,0,0,1,1.38,15.02,9.987,9.987,0,0,1,.36,12.633,9.681,9.681,0,0,1,0,9.987Z" fill="#B4B4B4"/>
</svg>
