<svg id="svg" xmlns="http://www.w3.org/2000/svg" xmlns:xlink="http://www.w3.org/1999/xlink" width="500" height="668.0584551148226" viewBox="0, 0, 500,668.0584551148226">
<g id="svgg">
    <path id="path0" d="M143.354 0.520 C 130.084 3.205,119.554 13.276,115.959 26.720 C 115.085 29.991,115.052 30.490,114.906 42.537 L 114.756 54.976 71.905 54.982 C 20.177 54.989,21.266 54.906,13.862 59.379 C 4.094 65.279,-0.193 73.911,0.069 87.149 C 0.358 101.716,7.639 111.783,20.877 115.921 L 23.486 116.736 250.000 116.736 L 476.514 116.736 479.123 115.924 C 492.601 111.726,499.986 101.179,499.992 86.117 C 499.999 72.419,494.244 62.776,483.031 57.691 C 477.064 54.986,480.909 55.178,430.357 55.057 L 385.243 54.949 385.093 42.523 C 384.948 30.491,384.915 29.991,384.041 26.720 C 380.694 14.203,371.762 4.983,359.255 1.137 L 356.124 0.174 250.870 0.118 C 165.086 0.072,145.197 0.147,143.354 0.520 M353.582 25.165 C 355.883 26.060,358.175 28.208,359.323 30.545 L 360.299 32.533 360.404 43.754 L 360.509 54.976 250.018 54.976 L 139.527 54.976 139.527 44.426 C 139.527 29.711,140.761 26.701,147.530 24.906 C 150.829 24.032,351.314 24.284,353.582 25.165 M34.316 128.237 C 17.232 131.632,5.219 145.537,5.219 161.920 C 5.219 168.077,39.564 636.844,40.301 640.745 C 42.598 652.902,51.007 662.689,62.630 666.734 L 65.936 667.884 248.782 667.976 C 409.102 668.056,431.937 668.004,434.132 667.553 C 447.241 664.857,457.840 653.356,459.961 639.527 C 460.538 635.760,494.781 166.080,494.781 161.924 C 494.781 145.451,482.626 131.478,465.466 128.223 C 461.484 127.467,38.119 127.482,34.316 128.237 M124.029 185.989 C 130.486 187.671,135.580 192.919,136.928 199.280 C 137.671 202.788,137.682 581.436,136.939 584.942 C 133.183 602.659,107.841 603.435,103.282 585.971 C 102.543 583.139,102.294 202.829,103.029 199.304 C 104.995 189.875,114.882 183.606,124.029 185.989 M254.373 187.408 C 260.180 189.129,264.690 193.411,266.511 198.932 L 267.226 201.101 267.138 394.157 L 267.049 587.213 265.594 590.145 C 258.939 603.548,241.061 603.548,234.406 590.145 L 232.951 587.213 232.862 394.133 L 232.774 201.053 233.606 198.659 C 236.593 190.071,246.058 184.943,254.373 187.408 M384.830 190.207 C 390.529 191.781,395.265 196.712,396.823 202.694 C 397.635 205.814,397.635 586.462,396.823 589.582 C 392.268 607.068,367.733 607.097,363.263 589.621 C 362.317 585.920,362.145 207.833,363.088 203.381 C 365.198 193.419,374.987 187.487,384.830 190.207 " stroke="none" fill="#FFFFFF" fill-rule="evenodd"></path>
</g>
</svg>
