<svg id="Layer_1" xmlns="http://www.w3.org/2000/svg" viewBox="0 0 523 523" width="523" height="523">
    <style>.st0{fill:#FFFFFF;}</style>
    <path class="st0" d="M186.64 248.16C186.64 264.1 198.66 277.16 213.29 277.16C228.18 277.16 239.93 264.1 239.93 248.16C240.19 232.23 228.18 219.17 213.29 219.17C198.4 219.17 186.64 232.23 186.64 248.16ZM281.99 248.16C281.99 264.1 294.01 277.16 308.64 277.16C323.53 277.16 335.28 264.1 335.28 248.16C335.28 232.23 323.53 219.17 308.64 219.17C293.75 219.17 281.99 232.23 281.99 248.16Z"/>
    <path class="st0" d="M85.55 0C56.03 0 32 24.03 32 53.81C32 89.13 32 371.67 32 406.99C32 436.77 56.03 460.8 85.55 460.8C105.3 460.8 204.04 460.8 381.78 460.8L367.93 412.47L401.37 443.56L432.98 472.82L489.14 522.45C489.14 241.27 489.14 85.05 489.14 53.81C489.14 24.03 465.11 0 435.59 0C365.58 0 120.55 0 85.55 0ZM317.52 320C351.74 310.33 364.8 288.91 364.8 288.91C354.09 295.97 343.9 300.93 334.76 304.33C321.7 309.81 309.16 313.47 296.88 315.56C271.8 320.26 248.82 318.96 229.22 315.3C214.33 312.42 201.53 308.24 190.82 304.07C184.82 301.71 178.28 298.84 171.75 295.18C170.97 294.66 170.19 294.4 169.4 293.88C168.88 293.62 168.62 293.36 168.36 293.09C163.66 290.48 161.04 288.65 161.04 288.65C161.04 288.65 173.58 309.55 206.76 319.48C198.92 329.4 189.26 341.16 189.26 341.16C131.53 339.33 109.58 301.45 109.58 301.45C109.58 217.34 147.2 149.16 147.2 149.16C184.82 120.95 220.6 121.73 220.6 121.73C220.86 122.04 222.95 124.55 223.22 124.87C176.19 138.45 154.51 159.09 154.51 159.09C154.51 159.09 160.26 155.95 169.93 151.51C197.88 139.23 220.08 135.84 229.22 135.05C230.79 134.79 232.1 134.53 233.66 134.53C249.6 132.44 267.62 131.92 286.43 134.01C311.25 136.88 337.89 144.2 365.06 159.09C365.06 159.09 344.42 139.49 300.02 125.91C300.38 125.49 303.31 122.15 303.67 121.73C303.67 121.73 339.46 120.95 377.08 149.16C377.08 149.16 414.69 217.34 414.69 301.45C414.69 301.45 392.49 339.33 334.76 341.16C334.76 341.16 325.35 329.93 317.52 320Z"/>
</svg>