<?xml version="1.0" encoding="utf-8"?>
<!DOCTYPE svg PUBLIC "-//W3C//DTD SVG 1.1//EN" "http://www.w3.org/Graphics/SVG/1.1/DTD/svg11.dtd">
<svg version="1.1" xmlns="http://www.w3.org/2000/svg" xmlns:xlink="http://www.w3.org/1999/xlink" x="0px" y="0px" viewBox="0 0 1000 1000" enable-background="new 0 0 1000 1000" xml:space="preserve" fill="#FFFFFF">
<g>
	<g transform="translate(0.000000,511.000000) scale(0.100000,-0.100000)">
		<path d="M4999.2,4552.2v-457.8l-339.9-27.7c-598.8-48.5-1079.7-178-1593-430C458.5,2360.5-255.9-987.3,1605.2-3209.1c406.9-487.8,887.8-857.7,1479.7-1144.4c1817.2-876.2,4013.6-402.3,5308.3,1144.4c471.7,561.8,811.5,1262.3,950.2,1953.6c50.9,258.9,94.8,610.4,94.8,793v108.7h-550.2h-550.3L8310-647.4c-138.7-1498.2-1206.9-2672.6-2709.6-2982.5c-293.6-60.1-950.2-55.5-1253.1,11.6c-504,111-947.9,309.8-1338.6,603.4C1787.9-2099.3,1344-494.8,1922,908.5c483.2,1172.2,1586,1969.8,2853,2057.7l224.3,16.2v-467v-464.7l1098.2,732.9c603.4,402.3,1098.2,737.5,1098.2,746.8c0,9.2-494.8,344.5-1098.2,746.8L4999.2,5010V4552.2z"/><path d="M4259.4-353.8v-1479.7l1098.2,732.9C5961-698.3,6455.7-363,6455.7-353.8c0,9.2-494.7,344.5-1098.2,746.8l-1098.2,732.9V-353.8z"/>
	</g>
</g>
</svg>