<svg xmlns="http://www.w3.org/2000/svg" xmlns:xlink="http://www.w3.org/1999/xlink" xml:space="preserve" version="1.0" style="shape-rendering:geometricPrecision;text-rendering:geometricPrecision;image-rendering:optimizeQuality;" viewBox="0 0 100 100" x="0px" y="0px" fill-rule="evenodd" clip-rule="evenodd" fill="#FFFFFF">
<g>
	<path class="fil0" d="M57 54l32 0c4,0 7,3 7,7l0 22c0,4 -3,7 -7,7l-44 0c-4,0 -7,-3 -7,-7l0 -22c0,-4 3,-7 7,-7l0 -3c0,-2 1,-3 3,-3l6 0c2,0 3,1 3,3l0 3zm10 5c7,0 13,6 13,13 0,7 -6,13 -13,13 -7,0 -13,-6 -13,-13 0,-7 6,-13 13,-13z"/>
	<path class="fil0" d="M67 65c4,0 7,3 7,7 0,4 -3,7 -7,7 -4,0 -7,-3 -7,-7 0,-4 3,-7 7,-7z"/>
	<path class="fil0" d="M6 12l84 0 0 36c0,0 -1,0 -1,0l-7 0 0 -22 -67 0 0 49 17 0 0 7c0,0 0,1 0,1l-26 0 0 -73zm64 4l12 0 0 6 -12 0 0 -6zm-9 0l6 0 0 6 -6 0 0 -6zm-9 0l6 0 0 6 -6 0 0 -6z"/>
</g>
</svg>