<?xml version="1.0" encoding="UTF-8" standalone="no"?>
<!DOCTYPE svg PUBLIC "-//W3C//DTD SVG 1.1//EN" "http://www.w3.org/Graphics/SVG/1.1/DTD/svg11.dtd">
<svg version="1.1" xmlns="http://www.w3.org/2000/svg" xmlns:xlink="http://www.w3.org/1999/xlink" preserveAspectRatio="xMidYMid meet" viewBox="0 0 20 20" width="20" height="20"><defs><path d="M20 8.19C18.65 7.96 17.9 7.83 17.75 7.81C17.58 7.18 17.33 6.6 17.04 6.09C17.13 5.97 17.57 5.36 18.37 4.26L15.78 1.63C14.66 2.41 14.04 2.84 13.91 2.93C13.37 2.63 12.78 2.38 12.2 2.22C12.18 2.07 12.06 1.33 11.83 0L8.17 0C7.94 1.35 7.82 2.1 7.79 2.25C7.17 2.42 6.62 2.67 6.08 2.96C5.96 2.88 5.35 2.45 4.25 1.67L1.62 4.26C2.42 5.36 2.87 5.97 2.96 6.1C2.67 6.64 2.42 7.22 2.25 7.85C2.1 7.87 1.35 7.98 0 8.19L0 11.86C1.35 12.08 2.1 12.21 2.25 12.23C2.42 12.86 2.67 13.4 2.96 13.95C2.87 14.07 2.43 14.7 1.63 15.82L4.21 18.41C5.34 17.61 5.96 17.16 6.09 17.07C6.63 17.37 7.21 17.62 7.84 17.78C7.86 17.93 7.99 18.67 8.21 20L11.87 20C12.1 18.65 12.22 17.9 12.25 17.75C12.83 17.58 13.42 17.33 13.96 17.04C14.08 17.12 14.71 17.57 15.84 18.37L18.42 15.78C17.62 14.66 17.18 14.03 17.09 13.9C17.38 13.36 17.63 12.82 17.79 12.19C17.94 12.17 18.68 12.06 20 11.86L20 11.86L20 8.19ZM6.17 10.02C6.17 7.9 7.92 6.18 10 6.18C12.08 6.18 13.83 7.89 13.83 10.02C13.83 12.15 12.13 13.86 10 13.86C10 13.86 10 13.87 10 13.87C7.44 12.72 6.17 11.44 6.17 10.02Z" id="ahG1aZxku"></path></defs><g><g><g><use xlink:href="#ahG1aZxku" opacity="1" fill="#b4b4b4" fill-opacity="1"></use><g><use xlink:href="#ahG1aZxku" opacity="1" fill-opacity="0" stroke="#000000" stroke-width="0" stroke-opacity="0"></use></g></g></g></g></svg>