<?xml version="1.0" encoding="UTF-8" standalone="no"?>
<svg
   xmlns:svg="http://www.w3.org/2000/svg"
   xmlns="http://www.w3.org/2000/svg"
   width="50"
   height="50"
   id="svg12281"
   version="1.0"
viewBox="2 0 46 40">
  <g
     id="layer1"
     transform="translate(-357.8571,-120.9336)">
    <path
       style="fill:#FFFFFF;fill-opacity:1;fill-rule:evenodd;stroke:none;stroke-width:3.99999928;stroke-linecap:square;stroke-linejoin:miter;stroke-miterlimit:4;stroke-dasharray:none;stroke-opacity:1"
       d="M 361.65381,122.94842 C 360.63549,123.06055 359.86651,123.92396 359.87256,124.94842 L 359.87256,156.94842 C 359.87267,158.05294 360.76804,158.94831 361.87256,158.94842 L 403.87256,158.94842 C 404.97708,158.94831 405.87245,158.05294 405.87256,156.94842 L 405.87256,124.94842 C 405.87245,123.8439 404.97708,122.94853 403.87256,122.94842 L 361.87256,122.94842 C 361.7997,122.94443 361.72667,122.94443 361.65381,122.94842 z M 363.87256,126.94842 L 370.87256,126.94842 L 370.87256,127.69842 L 370.87256,133.94842 L 363.87256,133.94842 L 363.87256,126.94842 z M 374.87256,126.94842 L 401.87256,126.94842 L 401.87256,133.94842 L 374.87256,133.94842 L 374.87256,127.69842 L 374.87256,126.94842 z M 363.87256,137.94842 L 370.87256,137.94842 L 370.87256,154.66717 L 370.87256,154.94842 L 363.87256,154.94842 L 363.87256,137.94842 z M 374.87256,137.94842 L 401.87256,137.94842 L 401.87256,154.94842 L 374.87256,154.94842 L 374.87256,154.66717 L 374.87256,137.94842 z "
       id="path12209" />
  </g>
</svg>
